<?xml version="1.0" encoding="utf-8"?>
<svg viewBox="70.15 34.396 373.963 334.589" style="enable-background:new 0 0 512 512;" xmlns="http://www.w3.org/2000/svg">
  <defs>
    <style type="text/css">
	.st0{display:none;}
	.st1{fill:#FFE2D2;}
	.st2{fill:#FFDE83;}
	.st3{fill:#F57070;}
	.st4{fill:#DBDBEF;}
	.st5{fill:#BCE2FF;}
	.st6{fill:#48446D;}
	.st7{fill:#6E78FF;}
	.st8{fill:#FFBE83;}
	.st9{fill:#F5949E;}
	.st10{fill:#D0FF67;}
	.st11{fill:#C69C6D;}
	.st12{fill:#C5BDD3;}
	.st13{fill:#FFE2B8;}
	.st14{fill:#F54670;}
</style>
  </defs>
  <g id="Layer_2">
    <g>
      <path class="st3" d="M412.34,217.22c-2.86-1.84-4.02-5.54-2.59-8.74c9.7-21.54,14.47-42.31,14.2-61.72    c-0.34-24.3-10.13-47.01-27.55-63.96c-17.43-16.94-40.39-26.07-64.71-25.73c-28.02,0.39-53.89,13.44-70.99,35.8    c-1.3,1.71-3.32,2.72-5.46,2.75h-0.1c-2.11,0-4.11-0.95-5.44-2.59c-17.71-21.87-43.98-34.2-71.96-33.79    c-24.3,0.34-47.02,10.12-63.96,27.55C96.84,104.22,87.7,127.2,88.05,151.5c0.73,52.14,37.37,110.87,108.9,174.56l0.08,0.06    c0.25,0.19,0.51,0.39,0.75,0.61c0.66,0.58,1.42,1.17,2.22,1.8l0.93,0.74c1.44,1.15,2.74,2.19,4.04,3.11    c0.94,0.67,1.91,1.29,2.93,1.96l0.58,0.37c1.41,0.89,2.82,1.79,4.23,2.58c1.16,0.66,2.38,1.3,3.53,1.89    c1.6,0.81,3.13,1.54,4.65,2.22c0.88,0.38,1.78,0.76,2.69,1.12c0.16,0.06,0.32,0.13,0.48,0.21l0.13,0.04    c0.04,0.02,0.08,0.03,0.12,0.05c1.51,0.6,3.17,1.19,5.1,1.81l0.23,0.08c1.02,0.33,2.03,0.66,3.06,0.95    c1.57,0.45,3.34,0.88,5.53,1.34l0.97,0.22c0.7,0.16,1.38,0.32,2.08,0.45c0.86,0.15,1.77,0.3,2.78,0.43    c1.17,0.16,2.3,0.29,3.44,0.42l0.1,0.02c0.38,0.03,0.84,0.1,1.3,0.16c0.36,0.05,0.72,0.1,1.08,0.13c3.1,0.26,6.05,0.36,8.8,0.32    h0.11c2.74-0.03,5.61-0.22,8.73-0.57c0.42-0.05,0.87-0.12,1.31-0.19c0.34-0.06,0.68-0.12,1.02-0.17l0.13-0.02l0.18-0.03    c1.93-0.26,4-0.56,6.04-1c0.66-0.14,1.3-0.3,1.94-0.47c0.36-0.09,0.72-0.18,1.08-0.27c1.07-0.27,2.18-0.56,3.3-0.86    c0.74-0.21,1.49-0.41,2.23-0.65c0.8-0.25,1.57-0.53,2.35-0.8l1.44-0.52c1.56-0.56,3.07-1.15,4.53-1.76c1.09-0.47,2.25-1,3.4-1.54    c1.46-0.7,2.95-1.46,4.51-2.32c1.45-0.78,2.52-1.4,3.51-1.99c1.4-0.85,2.82-1.8,4.15-2.7l0.43-0.3c1.06-0.73,2.06-1.41,3.02-2.13    c1.16-0.88,2.36-1.89,3.64-2.96l1.09-0.92c0.82-0.68,1.6-1.33,2.3-1.98c0.05-0.05,0.09-0.09,0.14-0.13    c0.18-0.16,0.37-0.31,0.55-0.46l0.11-0.09c26.53-25,48.3-49.48,64.72-72.78c1.96-2.77,5.55-3.69,8.53-2.36    c0.16,0.07,0.31,0.14,0.46,0.22c0.15,0.07,0.29,0.17,0.43,0.26c2.06-3.07,3.98-6.05,5.88-9.09c-0.13-0.09-0.27-0.18-0.4-0.3    c-0.14-0.1-0.26-0.22-0.38-0.33c-0.09-0.08-0.18-0.15-0.26-0.23c-0.32-0.32-0.62-0.68-0.87-1.06c-0.25-0.38-0.47-0.79-0.65-1.21    c-0.17-0.42-0.3-0.86-0.39-1.31c-0.09-0.45-0.14-0.91-0.14-1.36c0-0.46,0.05-0.92,0.14-1.37c0.09-0.45,0.22-0.89,0.39-1.31    c0.18-0.43,0.4-0.83,0.65-1.21s0.55-0.74,0.87-1.06c0.32-0.33,0.68-0.62,1.06-0.88c0.38-0.25,0.79-0.46,1.21-0.64    c0.42-0.17,0.86-0.31,1.31-0.4c0.9-0.18,1.83-0.18,2.74,0c0.33,0.07,0.66,0.17,0.99,0.29c0.11,0.03,0.21,0.07,0.32,0.11    c0.05,0.02,0.1,0.04,0.15,0.07c0.16,0.07,0.29,0.16,0.44,0.24c1.99-3.46,4.01-7.13,5.99-10.9c-0.15-0.07-0.3-0.14-0.44-0.23    C412.62,217.4,412.48,217.31,412.34,217.22z M122.46,152.48c-0.09,0.45-0.23,0.89-0.4,1.31c-0.18,0.42-0.39,0.83-0.65,1.21    c-0.25,0.38-0.54,0.74-0.86,1.06c-0.33,0.33-0.69,0.62-1.07,0.87c-0.38,0.26-0.78,0.47-1.21,0.65c-0.42,0.17-0.86,0.31-1.31,0.4    c-0.45,0.09-0.91,0.13-1.36,0.13c-0.46,0-0.92-0.04-1.37-0.13c-0.45-0.09-0.89-0.23-1.31-0.4c-0.43-0.18-0.83-0.39-1.21-0.65    c-0.38-0.25-0.74-0.54-1.06-0.87c-0.33-0.32-0.62-0.68-0.87-1.06c-0.26-0.38-0.47-0.79-0.65-1.21c-0.17-0.42-0.31-0.86-0.4-1.31    s-0.13-0.91-0.13-1.37c0-1.84,0.74-3.64,2.05-4.95c0.32-0.32,0.68-0.61,1.06-0.87c0.38-0.25,0.78-0.46,1.21-0.64    c0.42-0.17,0.86-0.31,1.31-0.4c0.9-0.18,1.83-0.18,2.73,0c0.45,0.09,0.89,0.23,1.31,0.4c0.43,0.18,0.83,0.39,1.21,0.64    c0.38,0.26,0.74,0.55,1.07,0.87c1.3,1.31,2.04,3.11,2.04,4.95C122.59,151.57,122.55,152.03,122.46,152.48z M179.28,93.54    c-0.27,0-0.54,0.01-0.82,0.01c-15.13,0.21-29.28,6.31-39.83,17.16c-5.15,5.3-9.16,11.41-11.9,18.15c-1.1,2.71-3.72,4.36-6.49,4.36    c-0.87,0-1.77-0.17-2.63-0.52c-3.58-1.45-5.3-5.54-3.85-9.12c3.43-8.42,8.42-16.03,14.83-22.63c13.16-13.53,30.8-21.13,49.67-21.4    c0.34,0,0.69-0.01,1.02-0.01c3.87,0,7,3.14,7,7C186.28,90.41,183.15,93.54,179.28,93.54z"/>
      <path class="st6" d="M186.28,86.54c0,3.87-3.13,7-7,7c-0.27,0-0.54,0.01-0.82,0.01c-15.13,0.21-29.28,6.31-39.83,17.16    c-5.15,5.3-9.16,11.41-11.9,18.15c-1.1,2.71-3.72,4.36-6.49,4.36c-0.87,0-1.77-0.17-2.63-0.52c-3.58-1.45-5.3-5.54-3.85-9.12    c3.43-8.42,8.42-16.03,14.83-22.63c13.16-13.53,30.8-21.13,49.67-21.4c0.34,0,0.69-0.01,1.02-0.01    C183.15,79.54,186.28,82.68,186.28,86.54z"/>
      <path class="st6" d="M122.59,151.11c0,0.46-0.04,0.92-0.13,1.37s-0.23,0.89-0.4,1.31c-0.18,0.42-0.39,0.83-0.65,1.21    c-0.25,0.38-0.54,0.74-0.86,1.06c-0.33,0.33-0.69,0.62-1.07,0.87c-0.38,0.26-0.78,0.47-1.21,0.65c-0.42,0.17-0.86,0.31-1.31,0.4    c-0.45,0.09-0.91,0.13-1.36,0.13c-0.46,0-0.92-0.04-1.37-0.13c-0.45-0.09-0.89-0.23-1.31-0.4c-0.43-0.18-0.83-0.39-1.21-0.65    c-0.38-0.25-0.74-0.54-1.06-0.87c-0.33-0.32-0.62-0.68-0.87-1.06c-0.26-0.38-0.47-0.79-0.65-1.21c-0.17-0.42-0.31-0.86-0.4-1.31    s-0.13-0.91-0.13-1.37c0-1.84,0.74-3.64,2.05-4.95c0.32-0.32,0.68-0.61,1.06-0.87c0.38-0.25,0.78-0.46,1.21-0.64    c0.42-0.17,0.86-0.31,1.31-0.4c0.9-0.18,1.83-0.18,2.73,0c0.45,0.09,0.89,0.23,1.31,0.4c0.43,0.18,0.83,0.39,1.21,0.64    c0.38,0.26,0.74,0.55,1.07,0.87C121.85,147.47,122.59,149.27,122.59,151.11z"/>
      <path class="st6" d="M410.95,234.77c0,1.84-0.75,3.64-2.05,4.94c-0.33,0.33-0.68,0.62-1.07,0.87c-0.38,0.26-0.78,0.47-1.2,0.65    c-0.43,0.17-0.87,0.31-1.31,0.4c-0.46,0.09-0.92,0.13-1.37,0.13c-0.46,0-0.92-0.04-1.37-0.13s-0.89-0.23-1.31-0.4    c-0.42-0.18-0.83-0.39-1.21-0.65c-0.01,0-0.01-0.01-0.02-0.01c-0.13-0.09-0.27-0.18-0.4-0.3c-0.14-0.1-0.26-0.22-0.38-0.33    c-0.09-0.08-0.18-0.15-0.26-0.23c-0.32-0.32-0.62-0.68-0.87-1.06c-0.25-0.38-0.47-0.79-0.65-1.21c-0.17-0.42-0.3-0.86-0.39-1.31    c-0.09-0.45-0.14-0.91-0.14-1.36c0-0.46,0.05-0.92,0.14-1.37c0.09-0.45,0.22-0.89,0.39-1.31c0.18-0.43,0.4-0.83,0.65-1.21    s0.55-0.74,0.87-1.06c0.32-0.33,0.68-0.62,1.06-0.88c0.38-0.25,0.79-0.46,1.21-0.64c0.42-0.17,0.86-0.31,1.31-0.4    c0.9-0.18,1.83-0.18,2.74,0c0.33,0.07,0.66,0.17,0.99,0.29c0.11,0.03,0.21,0.07,0.32,0.11c0.05,0.02,0.1,0.04,0.15,0.07    c0.16,0.07,0.29,0.16,0.44,0.24c0.21,0.11,0.42,0.2,0.61,0.33c0.39,0.26,0.74,0.55,1.07,0.88    C410.2,231.12,410.95,232.92,410.95,234.77z"/>
      <path class="st6" d="M 406.16 72.77 C 386.05 53.22 359.55 42.68 331.49 43.07 C 301.99 43.49 274.55 56.05 254.99 77.84 C 234.83 56.61 207.09 44.84 177.54 45.24 C 149.5 45.63 123.29 56.92 103.75 77.03 C 84.2 97.14 73.65 123.66 74.05 151.7 C 74.84 207.94 113.08 270.15 187.76 336.62 C 188 336.83 188.25 337.03 188.5 337.22 L 188.58 337.28 C 189.52 338.1 190.44 338.83 191.34 339.53 L 192.26 340.26 C 193.74 341.44 195.27 342.67 196.87 343.8 C 198.04 344.63 199.19 345.37 200.3 346.09 L 200.91 346.48 C 202.53 347.52 204.12 348.52 205.83 349.48 C 207.18 350.25 208.55 350.96 209.86 351.64 C 211.29 352.37 229.039 359.499 215.167 353.822 L 297.96 355 C 298.19 354.91 298.41 354.82 298.64 354.73 C 299.94 354.17 301.22 353.58 302.55 352.96 C 304.29 352.13 306.02 351.24 307.79 350.27 C 309.41 349.39 310.66 348.68 311.82 347.98 C 313.51 346.96 315.13 345.87 316.64 344.84 L 317.08 344.54 C 318.21 343.77 319.38 342.97 320.6 342.05 C 322.09 340.92 323.5 339.74 324.85 338.6 L 325.88 337.74 C 326.77 337 327.69 336.23 328.62 335.37 L 328.73 335.28 C 328.98 335.08 329.22 334.88 329.45 334.67 L 329.53 334.59 C 356.78 308.92 379.2 283.7 396.18 259.61 C 398.41 256.45 397.65 252.08 394.49 249.86 C 394.38 249.79 394.27 249.73 394.16 249.66 C 394.02 249.57 393.88 249.47 393.73 249.4 C 393.58 249.32 393.43 249.25 393.27 249.18 C 390.29 247.85 386.7 248.77 384.74 251.54 C 368.32 274.84 346.55 299.32 320.02 324.32 L 319.91 324.41 C 319.73 324.56 319.54 324.71 319.36 324.87 C 319.31 324.91 319.27 324.95 319.22 325 C 318.52 325.65 317.74 326.3 316.92 326.98 L 315.83 327.9 C 314.55 328.97 313.35 329.98 312.19 330.86 C 311.23 331.58 310.23 332.26 309.17 332.99 L 308.74 333.29 C 307.41 334.19 305.99 335.14 304.59 335.99 C 303.6 336.58 302.53 337.2 301.08 337.98 C 299.52 338.84 298.03 339.6 296.57 340.3 C 295.42 340.84 294.26 341.37 293.17 341.84 C 291.71 342.45 290.2 343.04 288.64 343.6 L 287.2 344.12 C 286.42 344.39 285.65 344.67 284.85 344.92 C 284.11 345.16 283.36 345.36 282.62 345.57 C 281.5 345.87 280.39 346.16 279.32 346.43 C 278.96 346.52 278.6 346.61 278.24 346.7 C 277.6 346.87 276.96 347.03 276.3 347.17 C 274.26 347.61 272.19 347.91 270.26 348.17 L 270.08 348.2 L 269.95 348.22 C 269.61 348.27 269.27 348.33 268.93 348.39 C 268.49 348.46 268.04 348.53 267.62 348.58 C 264.5 348.93 261.63 349.12 258.89 349.15 L 258.78 349.15 C 256.03 349.19 253.08 349.09 249.98 348.83 C 249.62 348.8 249.26 348.75 248.9 348.7 C 248.44 348.64 247.98 348.57 247.6 348.54 L 247.5 348.52 C 246.36 348.39 245.23 348.26 244.06 348.1 C 243.05 347.97 242.14 347.82 241.28 347.67 C 240.58 347.54 239.9 347.38 239.2 347.22 L 238.23 347 C 236.04 346.54 234.27 346.11 232.7 345.66 C 231.67 345.37 230.66 345.04 229.64 344.71 L 229.41 344.63 C 227.48 344.01 225.82 343.42 224.31 342.82 C 224.27 342.8 224.23 342.79 224.19 342.77 L 224.06 342.73 C 223.9 342.65 223.74 342.58 223.58 342.52 C 222.67 342.16 221.77 341.78 220.89 341.4 C 219.37 340.72 217.84 339.99 216.24 339.18 C 215.09 338.59 213.87 337.95 212.71 337.29 C 211.3 336.5 209.89 335.6 208.48 334.71 L 207.9 334.34 C 206.88 333.67 205.91 333.05 204.97 332.38 C 203.67 331.46 202.37 330.42 200.93 329.27 L 200 328.53 C 199.2 327.9 198.44 327.31 197.78 326.73 C 197.54 326.51 197.28 326.31 197.03 326.12 L 196.95 326.06 C 125.42 262.37 88.78 203.64 88.05 151.5 C 87.7 127.2 96.84 104.22 113.78 86.79 C 130.72 69.36 153.44 59.58 177.74 59.24 C 205.72 58.83 231.99 71.16 249.7 93.03 C 251.03 94.67 253.03 95.62 255.14 95.62 L 255.24 95.62 C 257.38 95.59 259.4 94.58 260.7 92.87 C 277.8 70.51 303.67 57.46 331.69 57.07 C 356.01 56.73 378.97 65.86 396.4 82.8 C 413.82 99.75 423.61 122.46 423.95 146.76 C 424.22 166.17 419.45 186.94 409.75 208.48 C 408.32 211.68 409.48 215.38 412.34 217.22 C 412.48 217.31 412.62 217.4 412.77 217.48 C 412.91 217.57 413.06 217.64 413.21 217.71 C 413.23 217.72 413.25 217.73 413.27 217.74 C 416.79 219.32 420.94 217.75 422.52 214.23 C 433.06 190.8 438.25 168.03 437.95 146.56 C 437.55 118.52 426.26 92.31 406.16 72.77 Z M 298.751 354.766 L 211.747 352.311 C 212.017 352.401 212.865 352.928 213.145 353.008 C 213.896 353.221 216.678 354.681 220.437 356.018 C 221.294 356.322 222.6 356.706 223.492 356.97 C 228.734 358.523 233.998 360.416 235.26 360.69 L 236.11 360.88 C 236.99 361.08 237.87 361.27 238.75 361.43 C 239.83 361.63 240.95 361.81 242.16 361.97 C 243.41 362.15 244.66 362.29 245.92 362.43 C 245.94 362.44 246.07 362.45 246.09 362.45 C 246.39 362.48 246.68 362.53 246.98 362.57 C 247.61 362.65 248.24 362.74 248.85 362.79 C 249.29 362.82 249.73 362.85 250.17 362.88 L 264.17 362.94 C 265.79 362.83 267.45 362.69 269.18 362.5 C 269.85 362.42 270.53 362.31 271.2 362.2 C 271.49 362.15 271.77 362.11 272.05 362.06 C 272.09 362.06 272.12 362.05 272.16 362.05 L 272.25 362.03 C 274.32 361.75 276.75 361.39 279.2 360.87 C 280.05 360.69 280.89 360.48 281.74 360.26 L 282.68 360.02 C 283.1 359.91 298.321 354.876 298.751 354.766 Z"/>
    </g>
  </g>
</svg>